# xmcd
#
# Track frame offsets: 
#        150
#        14688
#        29909
#        47923
#        65489
#        84053
#        105654
#        121012
#        134345
#        154940
#        169243
#        190320
#
# Disc length: 2769 seconds
#
# Revision: 0
# Processed by: cddbd v1.5.2PL0 Copyright (c) Steve Scherf et al.
# Submitted via: ExactAudioCopyFreeDBPlugin 1.0
#
DISCID=a30acf0c
DTITLE=Harpin Jonny - Harpster
DYEAR=2013
DGENRE=Blues
TTITLE0=That's What Knocks Me Out
TTITLE1=Solitary Man
TTITLE2=Random Acts Of Kindness
TTITLE3=Django-Jericho
TTITLE4=One More Jack Daniels
TTITLE5=Midnight Again
TTITLE6=Puerto De Azul
TTITLE7=Sugarfoot Rag
TTITLE8=Tumbleweed
TTITLE9=Over The Rainbow
TTITLE10=Pretty Little Lights Of Town (Bonus Track)
TTITLE11=Baby Please Don't Go (Bonus Track)
EXTD=
EXTT0=
EXTT1=
EXTT2=
EXTT3=
EXTT4=
EXTT5=
EXTT6=
EXTT7=
EXTT8=
EXTT9=
EXTT10=
EXTT11=
PLAYORDER=
